<svg width="224" height="90" viewBox="0 0 224 90" fill="none" xmlns="http://www.w3.org/2000/svg">
<path d="M30.6074 38.2968V64.7848H36.0014V45.3242L45.1711 57.7574L54.8801 45.3242V64.7848H60.2741V38.2968H54.8801L45.1711 49.1082L36.0014 38.2968H30.6074Z" fill="#D9D9D9"/>
<path d="M67.298 61.6699C66.9363 61.1684 66.6732 60.6011 66.5239 60.1839V42.6474C66.8398 41.6983 67.2883 41.105 67.67 40.745C67.96 40.4716 68.2077 40.3346 68.3422 40.2727H85.5966C86.2821 40.2727 86.8171 40.574 87.2884 41.1125C87.7261 41.6126 88.0157 42.2266 88.1554 42.6611C88.2416 45.0656 88.341 48.7031 88.3708 52.1253C88.4024 55.758 88.3509 58.9198 88.1665 60.2176C87.9301 61.8813 86.8295 62.4542 86.3899 62.5799C83.7336 62.6674 79.7324 62.7696 76.1158 62.7999C74.2606 62.8155 72.522 62.8119 71.124 62.7787C69.6468 62.7436 68.7532 62.6774 68.449 62.6162C68.1735 62.5608 67.7614 62.3122 67.298 61.6699Z" stroke="#D9D9D9" stroke-width="4.5"/>
<path d="M94.6294 65.4764V37.6051H116.931C119.977 37.6051 121.101 40.9497 121.283 42.6219V61.5744C121.283 63.3582 119.107 64.919 118.019 65.4764H94.6294Z" stroke="#29ABE2" stroke-width="1.5"/>
<path d="M115.485 42.8792H100.427C99.8745 42.8792 99.4268 43.3269 99.4268 43.8792V59.0307C99.4268 59.583 99.8745 60.0307 100.427 60.0307H115.485C116.037 60.0307 116.485 59.583 116.485 59.0307V43.8792C116.485 43.3269 116.037 42.8792 115.485 42.8792Z" stroke="#29ABE2" stroke-width="1.5"/>
<path d="M125.81 41.5704L125.283 65.4764H130.558V56.0251H146.91V65.4764H151.657C151.833 58.4343 152.185 44.3501 151.657 41.5704C151.33 39.8464 148.492 37.1227 144.272 37.6786C137.415 37.6787 130.136 37.7897 128.448 38.2345C126.76 38.6792 126.338 40.4585 125.81 41.5704Z" stroke="#29ABE2" stroke-width="1.5"/>
<path d="M146.605 50.4688H130.613V42.965H146.605V50.4688Z" stroke="#29ABE2" stroke-width="1.5"/>
<path d="M171.395 64.9404L155.936 38.1411H161.267L173.527 58.5086L185.788 38.1411H191.118L175.659 64.9404H171.395Z" fill="#D9D9D9"/>
<path d="M198.346 61.5236C198.011 61.0593 197.763 60.5334 197.619 60.14V42.6882C198.124 41.2027 198.954 40.6719 199.243 40.5227H216.441C217.037 40.5227 217.508 40.7781 217.945 41.2771C218.346 41.7359 218.617 42.301 218.752 42.7052C218.837 45.1082 218.936 48.7247 218.966 52.1275C218.997 55.7663 218.945 58.9072 218.764 60.1825C218.637 61.0761 218.271 61.5802 217.937 61.8819C217.756 62.0451 217.567 62.164 217.399 62.2449C217.316 62.2847 217.243 62.3127 217.186 62.3313C214.531 62.4185 210.554 62.5198 206.958 62.5499C205.104 62.5654 203.369 62.5619 201.975 62.5288C200.493 62.4935 199.622 62.4272 199.343 62.3711C199.155 62.3334 198.791 62.1415 198.346 61.5236Z" stroke="#D9D9D9" stroke-width="5"/>
<path d="M21.9205 8.38559C23.6037 9.48163 24.8088 11.004 25.7624 13.0146C25.8981 19.7448 25.897 23.7009 25.836 28.1122C25.3815 27.923 24.9185 27.7588 24.4434 27.6238C22.2953 27.0136 20.159 27.066 17.7222 27.612C15.6424 27.5817 14.2249 27.4427 12.9912 27.1398C11.8082 26.8493 10.6693 26.3768 9.20141 25.5345C7.29977 23.5972 6.34023 22.1656 5.79771 20.7863C5.23866 19.365 5.01848 17.7412 5.00091 15.2029C5.43063 11.8501 6.33337 10.3037 7.44788 9.28627C8.69675 8.1462 10.5347 7.33937 13.6983 6.21437C17.5942 6.38344 20.1518 7.23384 21.9205 8.38559Z" stroke="#D9D9D9" stroke-width="6"/>
<path d="M23.5003 13.4176C23.4092 17.9248 23.3902 20.4181 23.5003 24.7079C20.242 25.6708 18.2614 25.7205 14.3626 24.7079C9.13435 23.1266 7.90614 21.3146 7.375 17.181C8.11491 10.7724 9.92465 9.11618 14.9001 8.57886C19.35 8.47701 21.1526 9.68765 23.5003 13.4176Z" stroke="#D9D9D9"/>
<path d="M39.4254 6.15407C37.1484 6.54886 36.839 8.10318 35.5 10.5461V14.0461L35 16.7631C38.8141 16.6598 40.4953 16.2899 44.0988 15.5905C45.3585 13.4582 46.443 12.4201 45.8178 10.0119C44.4028 6.88369 42.3119 5.65361 39.4254 6.15407Z" stroke="#D9D9D9"/>
<path d="M35.0001 21.046L31.0001 23.546C31.8345 18.2093 30.0001 10.546 31.0001 8.04602C32.0001 5.54605 34.1005 2.14575 39.0001 1.04602C44.0218 0.733279 46.3857 1.97285 50.0001 6.04602C51.4375 9.74203 51.1945 11.3974 50.0001 14.046C48.8645 17.91 47.5645 18.9988 45.0001 20.546C45.0001 20.546 43.2971 21.5831 42.0001 21.546C40.7031 21.5089 40.0733 21.3659 39.0001 21.046C38.1259 20.8401 37.4844 20.77 35.0001 21.046Z" stroke="#D9D9D9"/>
<path d="M66.7252 83.5964C66.0052 83.5964 65.3918 83.4498 64.8852 83.1564C64.3785 82.8564 63.9952 82.4364 63.7352 81.8964C63.4752 81.3564 63.3452 80.7231 63.3452 79.9964C63.3452 79.2698 63.4752 78.6364 63.7352 78.0964C64.0018 77.5564 64.3885 77.1398 64.8952 76.8464C65.4085 76.5464 66.0252 76.3964 66.7452 76.3964C67.0918 76.3964 67.4318 76.4364 67.7652 76.5164C68.0985 76.5898 68.3985 76.7031 68.6652 76.8564V77.9564H68.6252C68.3852 77.7764 68.1052 77.6331 67.7852 77.5264C67.4718 77.4198 67.1485 77.3664 66.8152 77.3664C66.0618 77.3664 65.4852 77.5998 65.0852 78.0664C64.6918 78.5264 64.4952 79.1698 64.4952 79.9964C64.4952 80.8231 64.6885 81.4698 65.0752 81.9364C65.4685 82.3964 66.0385 82.6264 66.7852 82.6264C67.1185 82.6264 67.4452 82.5731 67.7652 82.4664C68.0852 82.3531 68.3718 82.1964 68.6252 81.9964H68.6652V83.0964C68.1118 83.4298 67.4652 83.5964 66.7252 83.5964ZM70.7824 76.5164H73.0624C74.8758 76.5164 75.7824 77.2764 75.7824 78.7964C75.7824 79.5564 75.5591 80.1398 75.1124 80.5464C74.6658 80.9531 74.0124 81.1564 73.1524 81.1564H71.8624V83.4764H70.7824V76.5164ZM73.0824 80.1864C73.6224 80.1864 74.0158 80.0831 74.2624 79.8764C74.5091 79.6698 74.6324 79.3231 74.6324 78.8364C74.6324 78.3564 74.5091 78.0164 74.2624 77.8164C74.0224 77.6098 73.6224 77.5064 73.0624 77.5064H71.8624V80.1864H73.0824ZM80.404 83.4764L80.274 82.7864C79.774 83.3264 79.174 83.5964 78.474 83.5964C77.9807 83.5964 77.5773 83.4631 77.264 83.1964C76.9507 82.9231 76.794 82.5631 76.794 82.1164C76.794 81.5364 77.0207 81.0998 77.474 80.8064C77.9273 80.5064 78.5373 80.3564 79.304 80.3564C79.6173 80.3564 79.9107 80.3698 80.184 80.3964V80.1164C80.184 79.7831 80.0907 79.5264 79.904 79.3464C79.724 79.1664 79.4673 79.0764 79.134 79.0764C78.7673 79.0764 78.4307 79.1298 78.124 79.2364C77.824 79.3431 77.5073 79.5131 77.174 79.7464V78.7464C77.4807 78.5264 77.7973 78.3698 78.124 78.2764C78.4573 78.1831 78.8307 78.1364 79.244 78.1364C79.8707 78.1364 80.364 78.3031 80.724 78.6364C81.084 78.9631 81.264 79.4164 81.264 79.9964V82.3164L81.484 83.4764H80.404ZM78.664 82.7364C78.9507 82.7364 79.214 82.6764 79.454 82.5564C79.7007 82.4298 79.944 82.2464 80.184 82.0064V81.1564H79.244C78.824 81.1564 78.4973 81.2231 78.264 81.3564C78.0307 81.4898 77.914 81.7164 77.914 82.0364C77.914 82.2564 77.9807 82.4298 78.114 82.5564C78.2473 82.6764 78.4307 82.7364 78.664 82.7364ZM86.2048 83.4764L86.0748 82.7864C85.5748 83.3264 84.9748 83.5964 84.2748 83.5964C83.7814 83.5964 83.3781 83.4631 83.0648 83.1964C82.7514 82.9231 82.5948 82.5631 82.5948 82.1164C82.5948 81.5364 82.8214 81.0998 83.2748 80.8064C83.7281 80.5064 84.3381 80.3564 85.1048 80.3564C85.4181 80.3564 85.7114 80.3698 85.9848 80.3964V80.1164C85.9848 79.7831 85.8914 79.5264 85.7048 79.3464C85.5248 79.1664 85.2681 79.0764 84.9348 79.0764C84.5681 79.0764 84.2314 79.1298 83.9248 79.2364C83.6248 79.3431 83.3081 79.5131 82.9748 79.7464V78.7464C83.2814 78.5264 83.5981 78.3698 83.9248 78.2764C84.2581 78.1831 84.6314 78.1364 85.0448 78.1364C85.6714 78.1364 86.1648 78.3031 86.5248 78.6364C86.8848 78.9631 87.0648 79.4164 87.0648 79.9964V82.3164L87.2848 83.4764H86.2048ZM84.4648 82.7364C84.7514 82.7364 85.0148 82.6764 85.2548 82.5564C85.5014 82.4298 85.7448 82.2464 85.9848 82.0064V81.1564H85.0448C84.6248 81.1564 84.2981 81.2231 84.0648 81.3564C83.8314 81.4898 83.7148 81.7164 83.7148 82.0364C83.7148 82.2564 83.7814 82.4298 83.9148 82.5564C84.0481 82.6764 84.2314 82.7364 84.4648 82.7364ZM91.0656 83.5964C90.6856 83.5964 90.2856 83.5464 89.8656 83.4464C89.4456 83.3464 89.0489 83.2098 88.6756 83.0364V81.9364C89.5222 82.4031 90.2989 82.6364 91.0056 82.6364C91.4056 82.6364 91.7222 82.5464 91.9556 82.3664C92.1956 82.1864 92.3156 81.9398 92.3156 81.6264C92.3156 81.3998 92.2489 81.2131 92.1156 81.0664C91.9889 80.9131 91.8256 80.7931 91.6256 80.7064C91.4322 80.6131 91.1656 80.5064 90.8256 80.3864C90.3922 80.2331 90.0422 80.0864 89.7756 79.9464C89.5089 79.8064 89.2789 79.6098 89.0856 79.3564C88.8989 79.0964 88.8056 78.7631 88.8056 78.3564C88.8056 77.7498 89.0189 77.2731 89.4456 76.9264C89.8789 76.5731 90.4622 76.3964 91.1956 76.3964C91.5422 76.3964 91.8822 76.4364 92.2156 76.5164C92.5489 76.5898 92.8589 76.6998 93.1456 76.8464V77.9164C92.4789 77.5431 91.8322 77.3564 91.2056 77.3564C90.7989 77.3564 90.4789 77.4364 90.2456 77.5964C90.0189 77.7498 89.9056 77.9631 89.9056 78.2364C89.9056 78.4298 89.9656 78.5931 90.0856 78.7264C90.2056 78.8598 90.3556 78.9698 90.5356 79.0564C90.7222 79.1364 90.9756 79.2331 91.2956 79.3464C91.7422 79.5064 92.1056 79.6598 92.3856 79.8064C92.6656 79.9531 92.9056 80.1664 93.1056 80.4464C93.3122 80.7198 93.4189 81.0731 93.4256 81.5064C93.4256 82.1464 93.2089 82.6564 92.7756 83.0364C92.3489 83.4098 91.7789 83.5964 91.0656 83.5964ZM98.1848 76.5164H100.465C102.278 76.5164 103.185 77.2764 103.185 78.7964C103.185 79.5564 102.961 80.1398 102.515 80.5464C102.068 80.9531 101.415 81.1564 100.555 81.1564H99.2648V83.4764H98.1848V76.5164ZM100.485 80.1864C101.025 80.1864 101.418 80.0831 101.665 79.8764C101.911 79.6698 102.035 79.3231 102.035 78.8364C102.035 78.3564 101.911 78.0164 101.665 77.8164C101.425 77.6098 101.025 77.5064 100.465 77.5064H99.2648V80.1864H100.485ZM104.786 76.5164H105.866V82.4864H108.906V83.4764H104.786V76.5164ZM114.707 81.7564H111.517L110.877 83.4764H109.797L112.457 76.5164H113.817L116.477 83.4764H115.347L114.707 81.7564ZM114.357 80.8364L113.117 77.5164L111.867 80.8364H114.357ZM119.099 77.5464H117.049V76.5164H122.229V77.5464H120.179V83.4764H119.099V77.5464ZM127.705 81.7564H124.515L123.875 83.4764H122.795L125.455 76.5164H126.815L129.475 83.4764H128.345L127.705 81.7564ZM127.355 80.8364L126.115 77.5164L124.865 80.8364H127.355ZM132.068 77.5064V79.6064H134.618V80.5464H132.068V83.4764H130.988V76.5164H135.278V77.5064H132.068ZM140.034 83.5964C139.347 83.5964 138.754 83.4498 138.254 83.1564C137.76 82.8564 137.384 82.4364 137.124 81.8964C136.87 81.3498 136.744 80.7164 136.744 79.9964C136.744 79.2764 136.87 78.6464 137.124 78.1064C137.384 77.5598 137.76 77.1398 138.254 76.8464C138.754 76.5464 139.347 76.3964 140.034 76.3964C140.72 76.3964 141.31 76.5464 141.804 76.8464C142.304 77.1398 142.68 77.5598 142.934 78.1064C143.194 78.6464 143.324 79.2764 143.324 79.9964C143.324 80.7164 143.194 81.3498 142.934 81.8964C142.68 82.4364 142.304 82.8564 141.804 83.1564C141.31 83.4498 140.72 83.5964 140.034 83.5964ZM140.034 82.6064C140.72 82.6064 141.247 82.3764 141.614 81.9164C141.987 81.4498 142.174 80.8098 142.174 79.9964C142.174 79.1831 141.987 78.5464 141.614 78.0864C141.247 77.6198 140.72 77.3864 140.034 77.3864C139.347 77.3864 138.817 77.6198 138.444 78.0864C138.077 78.5464 137.894 79.1831 137.894 79.9964C137.894 80.8098 138.077 81.4498 138.444 81.9164C138.817 82.3764 139.347 82.6064 140.034 82.6064ZM149.372 83.4764L147.952 80.7864H147.932H146.462V83.4764H145.382V76.5164H147.812C148.672 76.5164 149.315 76.6964 149.742 77.0564C150.169 77.4098 150.382 77.9231 150.382 78.5964C150.382 79.0898 150.272 79.5098 150.052 79.8564C149.832 80.1964 149.505 80.4464 149.072 80.6064L150.602 83.4764H149.372ZM147.822 79.8064C148.302 79.8064 148.655 79.7164 148.882 79.5364C149.115 79.3564 149.232 79.0498 149.232 78.6164C149.232 78.2098 149.119 77.9231 148.892 77.7564C148.665 77.5898 148.305 77.5064 147.812 77.5064H146.462V79.8064H147.822ZM159.884 83.4764H158.804V77.6764L156.734 83.4764H155.574L153.464 77.7064V83.4764H152.384V76.5164H154.164L156.174 81.9964L158.134 76.5164H159.884V83.4764Z" fill="white"/>
</svg>
