<svg width="41" height="40" viewBox="0 0 41 40" fill="none" xmlns="http://www.w3.org/2000/svg">
<ellipse cx="20.7255" cy="20" rx="19.7504" ry="20" fill="#F14336"/>
<path d="M20.9447 8.92053C14.9005 8.92053 10.001 13.8816 10.001 20.0001C10.001 26.1185 14.9005 31.0796 20.9447 31.0796C30.0714 31.0796 32.1288 22.4998 31.2728 18.154H28.7972H27.9926H20.9422V21.8469H27.9967C27.1855 25.0305 24.3393 27.3859 20.9422 27.3859C16.9142 27.3859 13.6478 24.0791 13.6478 20.0001C13.6478 15.9211 16.9142 12.6143 20.9422 12.6143C22.7741 12.6143 24.4431 13.3027 25.7241 14.432L28.3139 11.8094C26.3685 10.0146 23.7831 8.92053 20.9447 8.92053Z" fill="white"/>
</svg>
