<svg width="220" height="90" viewBox="0 0 220 90" fill="none" xmlns="http://www.w3.org/2000/svg">
<path d="M28.6072 38.2507V64.7388H34.0011V45.2781L43.1708 57.7113L52.8799 45.2781V64.7388H58.2738V38.2507H52.8799L43.1708 49.0621L34.0011 38.2507H28.6072Z" fill="black"/>
<path d="M65.2979 61.6238C64.9361 61.1224 64.673 60.555 64.5238 60.1379V42.6014C64.8397 41.6522 65.2882 41.059 65.6699 40.699C65.9599 40.4255 66.2076 40.2886 66.3421 40.2267H83.5964C84.2819 40.2267 84.817 40.528 85.2883 41.0665C85.726 41.5666 86.0156 42.1805 86.1553 42.6151C86.2414 45.0195 86.3409 48.6571 86.3707 52.0793C86.4022 55.712 86.3508 58.8738 86.1664 60.1716C85.93 61.8353 84.8294 62.4082 84.3898 62.5338C81.7335 62.6214 77.7322 62.7236 74.1157 62.7539C72.2605 62.7694 70.5218 62.7659 69.1239 62.7327C67.6467 62.6975 66.753 62.6313 66.4488 62.5702C66.1734 62.5148 65.7613 62.2662 65.2979 61.6238Z" stroke="black" stroke-width="4.5"/>
<path d="M92.6295 65.4304V37.5591H114.931C117.977 37.5591 119.101 40.9036 119.283 42.5759V61.5284C119.283 63.3122 117.107 64.873 116.019 65.4304H92.6295Z" stroke="#29ABE2" stroke-width="1.5"/>
<path d="M113.485 42.8332H98.4271C97.8748 42.8332 97.4271 43.2809 97.4271 43.8332V58.9848C97.4271 59.537 97.8748 59.9848 98.4271 59.9848H113.485C114.038 59.9848 114.485 59.537 114.485 58.9848V43.8332C114.485 43.2809 114.038 42.8332 113.485 42.8332Z" stroke="#29ABE2" stroke-width="1.5"/>
<path d="M123.81 41.5244L123.283 65.4304H128.558V55.9791H144.91V65.4304H149.658C149.833 58.3883 150.185 44.3041 149.658 41.5244C149.33 39.8004 146.493 37.0767 142.273 37.6326C135.415 37.6327 128.136 37.7437 126.448 38.1885C124.76 38.6332 124.338 40.4125 123.81 41.5244Z" stroke="#29ABE2" stroke-width="1.5"/>
<path d="M144.606 50.4228H128.614V42.9189H144.606V50.4228Z" stroke="#29ABE2" stroke-width="1.5"/>
<path d="M169.395 64.8944L153.936 38.0951H159.267L171.527 58.4626L183.788 38.0951H189.118L173.659 64.8944H169.395Z" fill="black"/>
<path d="M196.345 61.4776C196.01 61.0133 195.763 60.4873 195.618 60.094V42.6422C196.123 41.1567 196.954 40.6259 197.243 40.4767H214.441C215.037 40.4767 215.508 40.7321 215.945 41.2311C216.346 41.6899 216.617 42.255 216.751 42.6592C216.837 45.0621 216.936 48.6787 216.965 52.0815C216.997 55.7203 216.945 58.8612 216.763 60.1365C216.637 61.0301 216.27 61.5341 215.937 61.8359C215.756 61.999 215.567 62.1179 215.398 62.1988C215.315 62.2387 215.243 62.2667 215.186 62.2853C212.531 62.3725 208.554 62.4738 204.958 62.5039C203.104 62.5194 201.369 62.5159 199.974 62.4827C198.492 62.4475 197.622 62.3811 197.343 62.3251C197.155 62.2874 196.791 62.0955 196.345 61.4776Z" stroke="black" stroke-width="5"/>
<path d="M19.9205 8.33957C21.6037 9.43561 22.8088 10.9579 23.7624 12.9685C23.8981 19.6988 23.897 23.6549 23.836 28.0662C23.3815 27.877 22.9185 27.7128 22.4434 27.5778C20.2953 26.9676 18.159 27.02 15.7222 27.5659C13.6424 27.5357 12.2249 27.3967 10.9912 27.0938C9.80817 26.8033 8.66934 26.3308 7.20141 25.4885C5.29977 23.5511 4.34023 22.1196 3.79771 20.7403C3.23866 19.3189 3.01848 17.6951 3.00091 15.1569C3.43063 11.8041 4.33337 10.2577 5.44788 9.24025C6.69675 8.10018 8.53473 7.29335 11.6983 6.16835C15.5942 6.33742 18.1518 7.18782 19.9205 8.33957Z" stroke="black" stroke-width="6"/>
<path d="M21.5004 13.3715C21.4093 17.8787 21.3904 20.372 21.5004 24.6618C18.2421 25.6247 16.2615 25.6745 12.3628 24.6618C7.13447 23.0805 5.90626 21.2685 5.37512 17.1349C6.11503 10.7263 7.92477 9.0701 12.9003 8.53278C17.3501 8.43093 19.1527 9.64157 21.5004 13.3715Z" stroke="black"/>
<path d="M37.4254 6.10801C35.1484 6.50281 34.839 8.05713 33.5 10.5V14L33 16.7171C36.8141 16.6138 38.4953 16.2439 42.0988 15.5444C43.3585 13.4121 44.443 12.374 43.8178 9.96585C42.4028 6.83764 40.3119 5.60756 37.4254 6.10801Z" stroke="black"/>
<path d="M33 21L29 23.5C29.8344 18.1633 28 10.4999 29 7.99997C30 5.5 32.1003 2.0997 37 0.999971C42.0216 0.687228 44.3856 1.92679 48 5.99997C49.4374 9.69598 49.1944 11.3514 48 14C46.8644 17.8639 45.5644 18.9528 43 20.5C43 20.5 41.297 21.5371 40 21.5C38.7029 21.4629 38.0731 21.3199 37 21C36.1257 20.794 35.4843 20.724 33 21Z" stroke="black"/>
<path d="M74.9644 83.6361C74.2444 83.6361 73.6311 83.4895 73.1244 83.1961C72.6178 82.8961 72.2344 82.4761 71.9744 81.9361C71.7144 81.3961 71.5844 80.7628 71.5844 80.0361C71.5844 79.3095 71.7144 78.6761 71.9744 78.1361C72.2411 77.5961 72.6278 77.1795 73.1344 76.8861C73.6478 76.5861 74.2644 76.4361 74.9844 76.4361C75.3311 76.4361 75.6711 76.4761 76.0044 76.5561C76.3378 76.6295 76.6378 76.7428 76.9044 76.8961V77.9961H76.8644C76.6244 77.8161 76.3444 77.6728 76.0244 77.5661C75.7111 77.4595 75.3878 77.4061 75.0544 77.4061C74.3011 77.4061 73.7244 77.6395 73.3244 78.1061C72.9311 78.5661 72.7344 79.2095 72.7344 80.0361C72.7344 80.8628 72.9278 81.5095 73.3144 81.9761C73.7078 82.4361 74.2778 82.6661 75.0244 82.6661C75.3578 82.6661 75.6844 82.6128 76.0044 82.5061C76.3244 82.3928 76.6111 82.2361 76.8644 82.0361H76.9044V83.1361C76.3511 83.4695 75.7044 83.6361 74.9644 83.6361ZM79.0217 76.5561H81.3017C83.115 76.5561 84.0217 77.3161 84.0217 78.8361C84.0217 79.5961 83.7984 80.1795 83.3517 80.5861C82.905 80.9928 82.2517 81.1961 81.3917 81.1961H80.1017V83.5161H79.0217V76.5561ZM81.3217 80.2261C81.8617 80.2261 82.255 80.1228 82.5017 79.9161C82.7484 79.7095 82.8717 79.3628 82.8717 78.8761C82.8717 78.3961 82.7484 78.0561 82.5017 77.8561C82.2617 77.6495 81.8617 77.5461 81.3017 77.5461H80.1017V80.2261H81.3217ZM88.6433 83.5161L88.5133 82.8261C88.0133 83.3661 87.4133 83.6361 86.7133 83.6361C86.2199 83.6361 85.8166 83.5028 85.5033 83.2361C85.1899 82.9628 85.0333 82.6028 85.0333 82.1561C85.0333 81.5761 85.2599 81.1395 85.7133 80.8461C86.1666 80.5461 86.7766 80.3961 87.5433 80.3961C87.8566 80.3961 88.1499 80.4095 88.4233 80.4361V80.1561C88.4233 79.8228 88.3299 79.5661 88.1433 79.3861C87.9633 79.2061 87.7066 79.1161 87.3733 79.1161C87.0066 79.1161 86.6699 79.1695 86.3633 79.2761C86.0633 79.3828 85.7466 79.5528 85.4133 79.7861V78.7861C85.7199 78.5661 86.0366 78.4095 86.3633 78.3161C86.6966 78.2228 87.0699 78.1761 87.4833 78.1761C88.1099 78.1761 88.6033 78.3428 88.9633 78.6761C89.3233 79.0028 89.5033 79.4561 89.5033 80.0361V82.3561L89.7233 83.5161H88.6433ZM86.9033 82.7761C87.1899 82.7761 87.4533 82.7161 87.6933 82.5961C87.9399 82.4695 88.1833 82.2861 88.4233 82.0461V81.1961H87.4833C87.0633 81.1961 86.7366 81.2628 86.5033 81.3961C86.2699 81.5295 86.1533 81.7561 86.1533 82.0761C86.1533 82.2961 86.2199 82.4695 86.3533 82.5961C86.4866 82.7161 86.6699 82.7761 86.9033 82.7761ZM94.444 83.5161L94.314 82.8261C93.814 83.3661 93.214 83.6361 92.514 83.6361C92.0207 83.6361 91.6174 83.5028 91.304 83.2361C90.9907 82.9628 90.834 82.6028 90.834 82.1561C90.834 81.5761 91.0607 81.1395 91.514 80.8461C91.9674 80.5461 92.5774 80.3961 93.344 80.3961C93.6574 80.3961 93.9507 80.4095 94.224 80.4361V80.1561C94.224 79.8228 94.1307 79.5661 93.944 79.3861C93.764 79.2061 93.5074 79.1161 93.174 79.1161C92.8074 79.1161 92.4707 79.1695 92.164 79.2761C91.864 79.3828 91.5474 79.5528 91.214 79.7861V78.7861C91.5207 78.5661 91.8374 78.4095 92.164 78.3161C92.4974 78.2228 92.8707 78.1761 93.284 78.1761C93.9107 78.1761 94.404 78.3428 94.764 78.6761C95.124 79.0028 95.304 79.4561 95.304 80.0361V82.3561L95.524 83.5161H94.444ZM92.704 82.7761C92.9907 82.7761 93.254 82.7161 93.494 82.5961C93.7407 82.4695 93.984 82.2861 94.224 82.0461V81.1961H93.284C92.864 81.1961 92.5374 81.2628 92.304 81.3961C92.0707 81.5295 91.954 81.7561 91.954 82.0761C91.954 82.2961 92.0207 82.4695 92.154 82.5961C92.2874 82.7161 92.4707 82.7761 92.704 82.7761ZM99.3048 83.6361C98.9248 83.6361 98.5248 83.5861 98.1048 83.4861C97.6848 83.3861 97.2882 83.2495 96.9148 83.0761V81.9761C97.7615 82.4428 98.5382 82.6761 99.2448 82.6761C99.6448 82.6761 99.9615 82.5861 100.195 82.4061C100.435 82.2261 100.555 81.9795 100.555 81.6661C100.555 81.4395 100.488 81.2528 100.355 81.1061C100.228 80.9528 100.065 80.8328 99.8648 80.7461C99.6715 80.6528 99.4048 80.5461 99.0648 80.4261C98.6315 80.2728 98.2815 80.1261 98.0148 79.9861C97.7482 79.8461 97.5182 79.6495 97.3248 79.3961C97.1382 79.1361 97.0448 78.8028 97.0448 78.3961C97.0448 77.7895 97.2582 77.3128 97.6848 76.9661C98.1182 76.6128 98.7015 76.4361 99.4348 76.4361C99.7815 76.4361 100.121 76.4761 100.455 76.5561C100.788 76.6295 101.098 76.7395 101.385 76.8861V77.9561C100.718 77.5828 100.071 77.3961 99.4448 77.3961C99.0382 77.3961 98.7182 77.4761 98.4848 77.6361C98.2582 77.7895 98.1448 78.0028 98.1448 78.2761C98.1448 78.4695 98.2048 78.6328 98.3248 78.7661C98.4448 78.8995 98.5948 79.0095 98.7748 79.0961C98.9615 79.1761 99.2148 79.2728 99.5348 79.3861C99.9815 79.5461 100.345 79.6995 100.625 79.8461C100.905 79.9928 101.145 80.2061 101.345 80.4861C101.551 80.7595 101.658 81.1128 101.665 81.5461C101.665 82.1861 101.448 82.6961 101.015 83.0761C100.588 83.4495 100.018 83.6361 99.3048 83.6361ZM106.424 76.5561H108.704C110.517 76.5561 111.424 77.3161 111.424 78.8361C111.424 79.5961 111.201 80.1795 110.754 80.5861C110.307 80.9928 109.654 81.1961 108.794 81.1961H107.504V83.5161H106.424V76.5561ZM108.724 80.2261C109.264 80.2261 109.657 80.1228 109.904 79.9161C110.151 79.7095 110.274 79.3628 110.274 78.8761C110.274 78.3961 110.151 78.0561 109.904 77.8561C109.664 77.6495 109.264 77.5461 108.704 77.5461H107.504V80.2261H108.724ZM113.026 76.5561H114.106V82.5261H117.146V83.5161H113.026V76.5561ZM122.946 81.7961H119.756L119.116 83.5161H118.036L120.696 76.5561H122.056L124.716 83.5161H123.586L122.946 81.7961ZM122.596 80.8761L121.356 77.5561L120.106 80.8761H122.596ZM127.338 77.5861H125.288V76.5561H130.468V77.5861H128.418V83.5161H127.338V77.5861ZM135.944 81.7961H132.754L132.114 83.5161H131.034L133.694 76.5561H135.054L137.714 83.5161H136.584L135.944 81.7961ZM135.594 80.8761L134.354 77.5561L133.104 80.8761H135.594ZM140.307 77.5461V79.6461H142.857V80.5861H140.307V83.5161H139.227V76.5561H143.517V77.5461H140.307ZM148.273 83.6361C147.586 83.6361 146.993 83.4895 146.493 83.1961C146 82.8961 145.623 82.4761 145.363 81.9361C145.11 81.3895 144.983 80.7561 144.983 80.0361C144.983 79.3161 145.11 78.6861 145.363 78.1461C145.623 77.5995 146 77.1795 146.493 76.8861C146.993 76.5861 147.586 76.4361 148.273 76.4361C148.96 76.4361 149.55 76.5861 150.043 76.8861C150.543 77.1795 150.92 77.5995 151.173 78.1461C151.433 78.6861 151.563 79.3161 151.563 80.0361C151.563 80.7561 151.433 81.3895 151.173 81.9361C150.92 82.4761 150.543 82.8961 150.043 83.1961C149.55 83.4895 148.96 83.6361 148.273 83.6361ZM148.273 82.6461C148.96 82.6461 149.486 82.4161 149.853 81.9561C150.226 81.4895 150.413 80.8495 150.413 80.0361C150.413 79.2228 150.226 78.5861 149.853 78.1261C149.486 77.6595 148.96 77.4261 148.273 77.4261C147.586 77.4261 147.056 77.6595 146.683 78.1261C146.316 78.5861 146.133 79.2228 146.133 80.0361C146.133 80.8495 146.316 81.4895 146.683 81.9561C147.056 82.4161 147.586 82.6461 148.273 82.6461ZM157.611 83.5161L156.191 80.8261H156.171H154.701V83.5161H153.621V76.5561H156.051C156.911 76.5561 157.555 76.7361 157.981 77.0961C158.408 77.4495 158.621 77.9628 158.621 78.6361C158.621 79.1295 158.511 79.5495 158.291 79.8961C158.071 80.2361 157.745 80.4861 157.311 80.6461L158.841 83.5161H157.611ZM156.061 79.8461C156.541 79.8461 156.895 79.7561 157.121 79.5761C157.355 79.3961 157.471 79.0895 157.471 78.6561C157.471 78.2495 157.358 77.9628 157.131 77.7961C156.905 77.6295 156.545 77.5461 156.051 77.5461H154.701V79.8461H156.061ZM168.123 83.5161H167.043V77.7161L164.973 83.5161H163.813L161.703 77.7461V83.5161H160.623V76.5561H162.403L164.413 82.0361L166.373 76.5561H168.123V83.5161Z" fill="#181818"/>
</svg>
