<svg width="222" height="87" viewBox="0 0 222 87" fill="none" xmlns="http://www.w3.org/2000/svg">
<path d="M29 36.6916V63.1797H34.3939V43.719L43.5636 56.1522L53.2727 43.719V63.1797H58.6667V36.6916H53.2727L43.5636 47.5031L34.3939 36.6916H29Z" fill="#D9D9D9"/>
<path d="M65.8936 59.9185C65.5586 59.4542 65.3112 58.9283 65.1667 58.5349V41.0831C65.6718 39.5976 66.5023 39.0668 66.791 38.9176H83.9894C84.5852 38.9176 85.0563 39.173 85.4931 39.672C85.8946 40.1308 86.1652 40.6959 86.2996 41.1001C86.3855 43.5031 86.484 47.1196 86.5136 50.5224C86.5452 54.1612 86.493 57.3021 86.3118 58.5774C86.1849 59.471 85.8187 59.9751 85.4849 60.2768C85.3043 60.44 85.1153 60.5589 84.9467 60.6398C84.8637 60.6796 84.791 60.7076 84.7338 60.7262C82.0789 60.8134 78.1021 60.9147 74.5065 60.9448C72.6525 60.9603 70.9169 60.9568 69.5228 60.9237C68.0406 60.8884 67.1699 60.8221 66.8911 60.766C66.7035 60.7283 66.3394 60.5364 65.8936 59.9185Z" stroke="#D9D9D9" stroke-width="5"/>
<path d="M93.0225 63.8713V36H115.324C118.37 36 119.494 39.3446 119.676 41.0168V59.9693C119.676 61.7531 117.5 63.3139 116.412 63.8713H93.0225Z" stroke="#29ABE2" stroke-width="1.5"/>
<path d="M113.878 41.2741H98.8201C98.2678 41.2741 97.8201 41.7218 97.8201 42.2741V57.4257C97.8201 57.978 98.2678 58.4257 98.8201 58.4257H113.878C114.43 58.4257 114.878 57.978 114.878 57.4257V42.2741C114.878 41.7218 114.43 41.2741 113.878 41.2741Z" stroke="#29ABE2" stroke-width="1.5"/>
<path d="M124.203 39.9653L123.676 63.8713H128.95V54.42H145.303V63.8713H150.05C150.226 56.8292 150.578 42.745 150.05 39.9653C149.723 38.2413 146.885 35.5176 142.665 36.0735C135.808 36.0736 128.528 36.1846 126.84 36.6294C125.153 37.0741 124.731 38.8534 124.203 39.9653Z" stroke="#29ABE2" stroke-width="1.5"/>
<path d="M144.998 48.8637H129.006V41.3599H144.998V48.8637Z" stroke="#29ABE2" stroke-width="1.5"/>
<path d="M169.788 63.3353L154.329 36.536H159.66L171.92 56.9035L184.181 36.536H189.511L174.052 63.3353H169.788Z" fill="#D9D9D9"/>
<path d="M196.738 59.9185C196.403 59.4542 196.156 58.9283 196.011 58.5349V41.0831C196.516 39.5976 197.347 39.0668 197.635 38.9176H214.834C215.43 38.9176 215.901 39.173 216.338 39.672C216.739 40.1308 217.01 40.6959 217.144 41.1001C217.23 43.5031 217.329 47.1196 217.358 50.5224C217.39 54.1612 217.337 57.3021 217.156 58.5774C217.029 59.471 216.663 59.9751 216.329 60.2768C216.149 60.44 215.96 60.5589 215.791 60.6398C215.708 60.6796 215.635 60.7076 215.578 60.7262C212.923 60.8134 208.947 60.9147 205.351 60.9448C203.497 60.9603 201.761 60.9568 200.367 60.9237C198.885 60.8884 198.014 60.8221 197.736 60.766C197.548 60.7283 197.184 60.5364 196.738 59.9185Z" stroke="#D9D9D9" stroke-width="5"/>
<path d="M20.1934 4.9206C22.0001 6.09704 23.2706 7.73236 24.2602 9.85205C24.406 17.0398 24.3968 21.0764 24.3249 25.8329C23.668 25.518 22.9997 25.2557 22.3067 25.0588C20.2432 24.4726 18.1783 24.5215 15.7744 25.0668C13.6462 25.0381 12.1703 24.8982 10.872 24.5794C9.61548 24.2709 8.41781 23.7679 6.89282 22.8878C4.93327 20.8992 3.9131 19.3997 3.33241 17.9233C2.73757 16.411 2.51669 14.7067 2.5007 12.1269C2.93799 8.67853 3.87641 6.99783 5.11078 5.87101C6.45491 4.64398 8.41062 3.80361 11.6222 2.66476C15.6344 2.82645 18.3142 3.69697 20.1934 4.9206Z" stroke="black" stroke-width="5"/>
<path d="M32.5 17.851V7.37359C32.816 6.3956 33.0923 5.80979 33.4121 5.34671C33.7531 4.85278 34.2403 4.35898 35.1712 3.68148C35.9984 3.15491 36.6017 2.89431 37.2899 2.73725C38.0122 2.57242 38.9395 2.49584 40.454 2.50021C42.3868 2.96265 43.4806 3.44031 44.2636 4.0209C45.0186 4.58074 45.6746 5.37713 46.4697 6.83652C46.7686 8.00927 46.8712 8.85215 46.8609 9.64689C46.8498 10.5012 46.7077 11.4145 46.4031 12.765C45.9473 14.061 44.802 15.3847 43.3903 16.4487C42.6941 16.9735 42.0081 17.3773 41.4476 17.6392C40.9338 17.8794 40.6938 17.9218 40.6948 17.9289C40.6949 17.9294 40.696 17.9297 40.6982 17.9299C40.0417 17.9241 38.8758 17.8119 37.584 17.6766C37.4466 17.6622 37.3059 17.6473 37.1635 17.6322C36.0957 17.5192 34.9271 17.3955 34.3046 17.3944C33.7148 17.3934 33.2083 17.5612 32.9104 17.6755C32.7708 17.7292 32.6333 17.7886 32.5 17.851Z" stroke="black" stroke-width="5"/>
<path d="M64.9644 81.12C64.2444 81.12 63.6311 80.9733 63.1244 80.68C62.6178 80.38 62.2344 79.96 61.9744 79.42C61.7144 78.88 61.5844 78.2467 61.5844 77.52C61.5844 76.7933 61.7144 76.16 61.9744 75.62C62.2411 75.08 62.6278 74.6633 63.1344 74.37C63.6478 74.07 64.2644 73.92 64.9844 73.92C65.3311 73.92 65.6711 73.96 66.0044 74.04C66.3378 74.1133 66.6378 74.2267 66.9044 74.38V75.48H66.8644C66.6244 75.3 66.3444 75.1567 66.0244 75.05C65.7111 74.9433 65.3878 74.89 65.0544 74.89C64.3011 74.89 63.7244 75.1233 63.3244 75.59C62.9311 76.05 62.7344 76.6933 62.7344 77.52C62.7344 78.3467 62.9278 78.9933 63.3144 79.46C63.7078 79.92 64.2778 80.15 65.0244 80.15C65.3578 80.15 65.6844 80.0967 66.0044 79.99C66.3244 79.8767 66.6111 79.72 66.8644 79.52H66.9044V80.62C66.3511 80.9533 65.7044 81.12 64.9644 81.12ZM69.0217 74.04H71.3017C73.115 74.04 74.0217 74.8 74.0217 76.32C74.0217 77.08 73.7984 77.6633 73.3517 78.07C72.905 78.4767 72.2517 78.68 71.3917 78.68H70.1017V81H69.0217V74.04ZM71.3217 77.71C71.8617 77.71 72.255 77.6067 72.5017 77.4C72.7484 77.1933 72.8717 76.8467 72.8717 76.36C72.8717 75.88 72.7484 75.54 72.5017 75.34C72.2617 75.1333 71.8617 75.03 71.3017 75.03H70.1017V77.71H71.3217ZM78.6433 81L78.5133 80.31C78.0133 80.85 77.4133 81.12 76.7133 81.12C76.2199 81.12 75.8166 80.9867 75.5033 80.72C75.1899 80.4467 75.0333 80.0867 75.0333 79.64C75.0333 79.06 75.2599 78.6233 75.7133 78.33C76.1666 78.03 76.7766 77.88 77.5433 77.88C77.8566 77.88 78.1499 77.8933 78.4233 77.92V77.64C78.4233 77.3067 78.3299 77.05 78.1433 76.87C77.9633 76.69 77.7066 76.6 77.3733 76.6C77.0066 76.6 76.6699 76.6533 76.3633 76.76C76.0633 76.8667 75.7466 77.0367 75.4133 77.27V76.27C75.7199 76.05 76.0366 75.8933 76.3633 75.8C76.6966 75.7067 77.0699 75.66 77.4833 75.66C78.1099 75.66 78.6033 75.8267 78.9633 76.16C79.3233 76.4867 79.5033 76.94 79.5033 77.52V79.84L79.7233 81H78.6433ZM76.9033 80.26C77.1899 80.26 77.4533 80.2 77.6933 80.08C77.9399 79.9533 78.1833 79.77 78.4233 79.53V78.68H77.4833C77.0633 78.68 76.7366 78.7467 76.5033 78.88C76.2699 79.0133 76.1533 79.24 76.1533 79.56C76.1533 79.78 76.2199 79.9533 76.3533 80.08C76.4866 80.2 76.6699 80.26 76.9033 80.26ZM84.444 81L84.314 80.31C83.814 80.85 83.214 81.12 82.514 81.12C82.0207 81.12 81.6174 80.9867 81.304 80.72C80.9907 80.4467 80.834 80.0867 80.834 79.64C80.834 79.06 81.0607 78.6233 81.514 78.33C81.9674 78.03 82.5774 77.88 83.344 77.88C83.6574 77.88 83.9507 77.8933 84.224 77.92V77.64C84.224 77.3067 84.1307 77.05 83.944 76.87C83.764 76.69 83.5074 76.6 83.174 76.6C82.8074 76.6 82.4707 76.6533 82.164 76.76C81.864 76.8667 81.5474 77.0367 81.214 77.27V76.27C81.5207 76.05 81.8374 75.8933 82.164 75.8C82.4974 75.7067 82.8707 75.66 83.284 75.66C83.9107 75.66 84.404 75.8267 84.764 76.16C85.124 76.4867 85.304 76.94 85.304 77.52V79.84L85.524 81H84.444ZM82.704 80.26C82.9907 80.26 83.254 80.2 83.494 80.08C83.7407 79.9533 83.984 79.77 84.224 79.53V78.68H83.284C82.864 78.68 82.5374 78.7467 82.304 78.88C82.0707 79.0133 81.954 79.24 81.954 79.56C81.954 79.78 82.0207 79.9533 82.154 80.08C82.2874 80.2 82.4707 80.26 82.704 80.26ZM89.3048 81.12C88.9248 81.12 88.5248 81.07 88.1048 80.97C87.6848 80.87 87.2882 80.7333 86.9148 80.56V79.46C87.7615 79.9267 88.5382 80.16 89.2448 80.16C89.6448 80.16 89.9615 80.07 90.1948 79.89C90.4348 79.71 90.5548 79.4633 90.5548 79.15C90.5548 78.9233 90.4882 78.7367 90.3548 78.59C90.2282 78.4367 90.0648 78.3167 89.8648 78.23C89.6715 78.1367 89.4048 78.03 89.0648 77.91C88.6315 77.7567 88.2815 77.61 88.0148 77.47C87.7482 77.33 87.5182 77.1333 87.3248 76.88C87.1382 76.62 87.0448 76.2867 87.0448 75.88C87.0448 75.2733 87.2582 74.7967 87.6848 74.45C88.1182 74.0967 88.7015 73.92 89.4348 73.92C89.7815 73.92 90.1215 73.96 90.4548 74.04C90.7882 74.1133 91.0982 74.2233 91.3848 74.37V75.44C90.7182 75.0667 90.0715 74.88 89.4448 74.88C89.0382 74.88 88.7182 74.96 88.4848 75.12C88.2582 75.2733 88.1448 75.4867 88.1448 75.76C88.1448 75.9533 88.2048 76.1167 88.3248 76.25C88.4448 76.3833 88.5948 76.4933 88.7748 76.58C88.9615 76.66 89.2148 76.7567 89.5348 76.87C89.9815 77.03 90.3448 77.1833 90.6248 77.33C90.9048 77.4767 91.1448 77.69 91.3448 77.97C91.5515 78.2433 91.6582 78.5967 91.6648 79.03C91.6648 79.67 91.4482 80.18 91.0148 80.56C90.5882 80.9333 90.0182 81.12 89.3048 81.12ZM96.424 74.04H98.704C100.517 74.04 101.424 74.8 101.424 76.32C101.424 77.08 101.201 77.6633 100.754 78.07C100.307 78.4767 99.654 78.68 98.794 78.68H97.504V81H96.424V74.04ZM98.724 77.71C99.264 77.71 99.6574 77.6067 99.904 77.4C100.151 77.1933 100.274 76.8467 100.274 76.36C100.274 75.88 100.151 75.54 99.904 75.34C99.664 75.1333 99.264 75.03 98.704 75.03H97.504V77.71H98.724ZM103.026 74.04H104.106V80.01H107.146V81H103.026V74.04ZM112.946 79.28H109.756L109.116 81H108.036L110.696 74.04H112.056L114.716 81H113.586L112.946 79.28ZM112.596 78.36L111.356 75.04L110.106 78.36H112.596ZM117.338 75.07H115.288V74.04H120.468V75.07H118.418V81H117.338V75.07ZM125.944 79.28H122.754L122.114 81H121.034L123.694 74.04H125.054L127.714 81H126.584L125.944 79.28ZM125.594 78.36L124.354 75.04L123.104 78.36H125.594ZM130.307 75.03V77.13H132.857V78.07H130.307V81H129.227V74.04H133.517V75.03H130.307ZM138.273 81.12C137.586 81.12 136.993 80.9733 136.493 80.68C136 80.38 135.623 79.96 135.363 79.42C135.11 78.8733 134.983 78.24 134.983 77.52C134.983 76.8 135.11 76.17 135.363 75.63C135.623 75.0833 136 74.6633 136.493 74.37C136.993 74.07 137.586 73.92 138.273 73.92C138.96 73.92 139.55 74.07 140.043 74.37C140.543 74.6633 140.92 75.0833 141.173 75.63C141.433 76.17 141.563 76.8 141.563 77.52C141.563 78.24 141.433 78.8733 141.173 79.42C140.92 79.96 140.543 80.38 140.043 80.68C139.55 80.9733 138.96 81.12 138.273 81.12ZM138.273 80.13C138.96 80.13 139.486 79.9 139.853 79.44C140.226 78.9733 140.413 78.3333 140.413 77.52C140.413 76.7067 140.226 76.07 139.853 75.61C139.486 75.1433 138.96 74.91 138.273 74.91C137.586 74.91 137.056 75.1433 136.683 75.61C136.316 76.07 136.133 76.7067 136.133 77.52C136.133 78.3333 136.316 78.9733 136.683 79.44C137.056 79.9 137.586 80.13 138.273 80.13ZM147.611 81L146.191 78.31H146.171H144.701V81H143.621V74.04H146.051C146.911 74.04 147.555 74.22 147.981 74.58C148.408 74.9333 148.621 75.4467 148.621 76.12C148.621 76.6133 148.511 77.0333 148.291 77.38C148.071 77.72 147.745 77.97 147.311 78.13L148.841 81H147.611ZM146.061 77.33C146.541 77.33 146.895 77.24 147.121 77.06C147.355 76.88 147.471 76.5733 147.471 76.14C147.471 75.7333 147.358 75.4467 147.131 75.28C146.905 75.1133 146.545 75.03 146.051 75.03H144.701V77.33H146.061ZM158.123 81H157.043V75.2L154.973 81H153.813L151.703 75.23V81H150.623V74.04H152.403L154.413 79.52L156.373 74.04H158.123V81Z" fill="white"/>
</svg>
